<svg xmlns="http://www.w3.org/2000/svg" viewBox="0 0 499.66 201.94"><defs><style>.cls-1{font-size:88.65px;font-family:Alice-Regular, Alice;}.cls-1,.cls-6{fill:#fff;}.cls-2{letter-spacing:-0.01em;}.cls-3{letter-spacing:-0.01em;}.cls-4{letter-spacing:-0.04em;}.cls-5{letter-spacing:-0.02em;}</style></defs><title>logo</title><g id="Capa_2" data-name="Capa 2"><g id="Layer_1" data-name="Layer 1"><text class="cls-1" transform="translate(0 173.48)"><tspan class="cls-2">P</tspan><tspan class="cls-3" x="52.92" y="0">H</tspan><tspan x="120.56" y="0">YTO</tspan><tspan class="cls-4" x="293.95" y="0">S</tspan><tspan x="338.72" y="0">Y</tspan><tspan class="cls-5" x="393.77" y="0">S</tspan><tspan x="440.31" y="0">T</tspan></text><path class="cls-6" d="M236.42,50.1H214.69c-8.11-.18-16.28-.59-24.4-.81a63.54,63.54,0,0,1-8-1c-1.78-.28-3.56-.55-5.32-.89-.69-.13-4.92-.63-5.08-1.35-.29.87,0,19.13,0,19.14,0,10.12-1.71,21.17,2.61,30.69,3.76,8.31,11.55,12.8,20.59,12.8h28.25v-21a7.25,7.25,0,0,0,4.93-7.06,7.33,7.33,0,0,0-7-7,7.25,7.25,0,0,0-2.59,14.09l-.17,8.8v2.62H200c-6.18,0-12.29-2.67-15.35-8.25-1.81-3.3-2.08-6.94-2.35-10.62a147.73,147.73,0,0,1-.25-20.86.68.68,0,0,0,.58.47,53.85,53.85,0,0,0,8,.75c2.8.17,5.6.27,8.4.33,5.61.11,11.21.06,16.82.07h.33q2.28,0,4.57,0c4.31.07,9.06.34,12.66,2.94a13,13,0,0,1,5.45,10.48v34.51l15.37-.29V64.58S253,49.47,236.42,50.1Zm-19,30.72a3.63,3.63,0,0,1,4.49-3.52,3.59,3.59,0,0,1,2.65,2.63A3.63,3.63,0,0,1,222,84.3h-2A3.62,3.62,0,0,1,217.4,80.82Z"/><path class="cls-6" d="M270.15,64.58v44.07l15.37.29V74.44A13,13,0,0,1,291,64c3.6-2.6,8.35-2.87,12.66-2.94,5.71-.1,11.41,0,17.13-.07l10-.14c3.19,0,6.47.16,9.64-.19.77-.09,2-.37,2-1.38-.07,7,.25,14-.28,21-.28,3.68-.54,7.32-2.35,10.62-3.06,5.58-9.17,8.25-15.35,8.25H305.93V96.46l-.17-8.8a7.25,7.25,0,0,0-2.59-14.09,7.33,7.33,0,0,0-7,7A7.25,7.25,0,0,0,301,87.68v21H329.3c9,0,16.83-4.5,20.59-12.8,4.31-9.53,2.61-20.57,2.61-30.69,0,0,.29-18.27,0-19.14.29,2.61-16.09,4.43-18.48,4.5-8.11.22-16.21-.59-24.32-.41H288C271.36,49.47,270.15,64.58,270.15,64.58ZM304.38,84.3h-2a3.63,3.63,0,0,1-2.51-4.38,3.59,3.59,0,0,1,2.65-2.63,3.63,3.63,0,0,1,1.87,7Z"/><path class="cls-6" d="M269,7.25A7.25,7.25,0,0,0,261.58,0a7.33,7.33,0,0,0-7,7.53A7.25,7.25,0,0,0,259.18,14v.49h5.22V14A7.25,7.25,0,0,0,269,7.25Zm-6.68,3.58a3.63,3.63,0,1,1,3-3A3.63,3.63,0,0,1,262.36,10.83Z"/><rect class="cls-6" x="259.06" y="13.67" width="5.8" height="95.27"/></g></g></svg>